<svg xmlns="http://www.w3.org/2000/svg" xmlns:xlink="http://www.w3.org/1999/xlink" width="500" zoomAndPan="magnify" viewBox="0 0 375 374.999991" height="500" preserveAspectRatio="xMidYMid meet" version="1.0"><defs><clipPath id="142b8bec65"><path d="M 75 106.5 L 375 106.5 L 375 337 L 75 337 Z M 75 106.5 " clip-rule="nonzero"/></clipPath></defs><g clip-path="url(#142b8bec65)"><path fill="#000000" d="M 123.644531 192.53125 C 124.414062 191.015625 121.136719 188.792969 118.597656 187.324219 C 117.5 185.886719 116.792969 184.386719 116.800781 182.769531 C 119.171875 181.019531 121.671875 179.054688 124.4375 178.121094 C 125.300781 180.652344 126.539062 183.09375 127.203125 185.652344 C 127.828125 188.066406 128.289062 191.699219 126.910156 194.253906 C 125.972656 193.851562 124.722656 193.152344 123.644531 192.53125 Z M 242.507812 176.121094 C 244.339844 176.292969 246.480469 175.933594 248.210938 176.015625 C 249.246094 176.066406 250.417969 176.285156 251.300781 176.761719 C 251.734375 176.992188 252.429688 177.738281 253.058594 178.097656 L 253.117188 178.332031 L 240.914062 181.378906 C 241.46875 179.785156 241.832031 177.484375 242.507812 176.121094 Z M 227.871094 335.292969 C 229.191406 336.167969 230.695312 336.140625 232.398438 335.992188 C 232.886719 335.953125 233.75 335.6875 234.425781 335.269531 C 235.5 335.886719 236.5625 335.925781 237.726562 335.566406 C 238.710938 335.257812 239.46875 334.558594 239.058594 333.511719 C 238.589844 332.339844 237.0625 331.761719 235.914062 331.488281 C 234.5625 331.167969 233.367188 330.753906 232.101562 330.128906 C 229.953125 329.074219 227.921875 328.015625 226.027344 326.589844 C 226.445312 325.039062 225.523438 323.378906 224.664062 322.050781 C 221.679688 317.421875 220.105469 313.324219 219.058594 308.109375 C 218.535156 305.5 218.085938 302.871094 216.847656 300.433594 C 216.4375 299.625 216.011719 298.792969 215.597656 297.957031 C 215.441406 294.742188 214.824219 291.519531 213.992188 288.667969 C 212.527344 283.601562 210.117188 278.894531 207.941406 273.996094 C 205.875 269.355469 204.726562 264.722656 203.097656 259.851562 C 201.417969 254.816406 199.035156 250.367188 196.605469 245.523438 C 195.34375 243.019531 194.105469 241.085938 192.050781 239.082031 C 190.550781 237.617188 188.402344 236.023438 187.253906 234.183594 C 186.851562 232.242188 185.679688 230.117188 185.082031 228.800781 C 184.597656 227.710938 184.246094 226.09375 183.613281 224.773438 C 183.835938 222.335938 183.25 219.390625 182.199219 217.847656 C 181.375 216.632812 178.667969 214.785156 176.796875 214.570312 C 175.839844 212.832031 174.648438 211.222656 172.828125 210.425781 C 173.027344 208.777344 173.148438 207.140625 172.847656 205.613281 C 174.640625 203.476562 175.738281 200.703125 175.640625 198.101562 C 175.582031 196.480469 175.28125 195.050781 175.109375 193.488281 C 175.042969 192.925781 175.019531 192.164062 174.980469 191.394531 C 177.027344 186.105469 177.8125 178.957031 182.90625 175.859375 C 185.453125 176.050781 188.019531 176.496094 190.277344 177.132812 C 192.695312 177.8125 196.179688 179.605469 198.824219 179.035156 C 200.144531 179.863281 201.667969 180.414062 203.113281 180.84375 C 204.464844 181.242188 208.351562 182.105469 209.460938 180.921875 C 213.125 181.921875 217.007812 182.839844 220.644531 183.425781 C 222.910156 183.792969 225.222656 184.019531 227.511719 184.117188 C 228.863281 184.175781 230.527344 184.433594 231.925781 184.5625 C 232.441406 187.953125 234.378906 187.1875 234.378906 187.1875 L 257.453125 181.132812 C 257.554688 181.761719 257.921875 182.671875 258.484375 182.941406 C 259.160156 183.277344 260.269531 182.859375 260.035156 182.085938 C 260.945312 182.585938 262.6875 182.085938 262.394531 181.222656 C 262.953125 181.695312 263.820312 182.175781 264.476562 182.160156 C 265.496094 182.148438 265.675781 181.261719 265.292969 180.539062 C 265.730469 180.554688 266.132812 180.546875 266.421875 180.28125 C 267.269531 181.007812 267.945312 181.515625 268.921875 180.386719 C 269.757812 179.421875 269.75 178.84375 269.367188 177.886719 L 270.527344 177.464844 C 273.332031 184.628906 271.703125 177.128906 271.703125 177.128906 C 371.746094 146 374.996094 133.296875 374.996094 133.296875 C 358.734375 146.085938 270.710938 174.058594 270.710938 174.058594 C 270.710938 174.058594 267.890625 167.917969 269.199219 173.964844 L 269.171875 173.972656 L 267.195312 174.613281 C 266.378906 174.121094 265.75 173.089844 264.90625 172.625 C 263.707031 171.964844 262.3125 171.710938 260.941406 171.324219 C 258.238281 170.5625 255.441406 169.40625 252.726562 168.597656 C 250.058594 167.808594 247.742188 167.148438 244.980469 167.003906 C 244.070312 166.03125 242.257812 166.136719 240.523438 165.871094 C 238.269531 165.519531 236.144531 164.1875 234.027344 163.476562 C 231.628906 162.671875 228.9375 162.257812 226.570312 161.644531 C 224.800781 161.1875 222.699219 160.425781 220.683594 160.324219 C 219.464844 159.285156 217.117188 158.957031 215.761719 159.039062 C 213.285156 159.183594 212.253906 160.164062 209.941406 158.746094 C 206.433594 156.59375 202.800781 155.753906 198.746094 155.402344 C 198.113281 154.453125 196.148438 154.230469 194.476562 154.214844 C 191.808594 153.113281 189.4375 151.136719 186.40625 150.996094 C 184.078125 149.5 180.960938 148.355469 178.382812 149.242188 L 178.347656 149.152344 C 176.40625 149.148438 173.996094 149.292969 171.992188 148.890625 C 170.296875 146.476562 167.085938 144.734375 163.960938 144.675781 C 163.804688 143.851562 163.589844 143.0625 163.183594 142.449219 C 163.234375 142.417969 163.292969 142.378906 163.347656 142.347656 C 165.882812 140.949219 169.328125 143.6875 171.753906 142.441406 C 173.355469 141.617188 172.589844 140.554688 172.476562 139.265625 C 172.363281 137.980469 173.011719 138.652344 173.71875 138.132812 C 174.152344 137.816406 174.070312 137.210938 173.820312 136.824219 C 174.359375 136.699219 174.746094 136.386719 174.828125 135.765625 C 174.9375 134.886719 174.269531 133.730469 175.34375 133.273438 C 176.195312 132.910156 177.527344 133.667969 177.964844 132.511719 C 178.257812 131.773438 177.542969 130.6875 177.257812 130.054688 C 176.808594 128.996094 175.859375 127.933594 176.175781 126.726562 C 176.542969 125.34375 176.988281 124.636719 176.726562 123.144531 C 176.53125 122.003906 175.804688 120.886719 175.636719 119.734375 C 175.507812 118.875 175.476562 118.203125 175.230469 117.566406 C 176.175781 117.152344 176.613281 116.054688 176.449219 115.046875 C 176.289062 114.023438 175.707031 113.464844 174.929688 113.097656 L 174.96875 113.019531 C 172.5625 111.800781 170.667969 109.796875 168.238281 108.628906 C 165.828125 107.472656 163.167969 106.988281 160.523438 107.179688 C 159.25 106.832031 157.949219 106.609375 156.589844 106.875 C 155.289062 107.136719 154.21875 107.804688 153.023438 108.375 C 150.59375 109.542969 147.804688 111.121094 146.351562 113.421875 C 144.867188 115.804688 144.398438 118.390625 144.546875 121.183594 C 144.6875 123.785156 146.578125 125.710938 146.988281 128.179688 C 147.324219 130.132812 147.078125 132.121094 148.566406 133.40625 C 148.363281 134.820312 147.652344 136.476562 146.800781 137.898438 C 144.5625 137.910156 143.539062 138.082031 142.019531 140.113281 C 141.160156 141.253906 140.566406 142.148438 140.1875 143.136719 C 136.75 143.648438 133.527344 145.09375 130.09375 145.914062 C 126.941406 146.65625 120.199219 145.46875 120.765625 149.628906 C 119.089844 151.765625 116 153.832031 114.050781 155.636719 C 112.707031 156.886719 111.703125 158.1875 110.890625 159.554688 C 107.113281 162.449219 102.007812 164.53125 100.804688 169.097656 C 99.539062 173.917969 95.929688 178.332031 95.929688 183.433594 C 95.929688 188.238281 99.398438 192.726562 101.851562 196.910156 C 102.980469 198.847656 103.804688 201.773438 105.46875 203.394531 C 107.792969 205.675781 110.003906 203.472656 112.160156 202.148438 C 113.949219 201.050781 116.070312 200.332031 117.9375 199.261719 C 121.421875 200.046875 124.738281 201.640625 127.003906 204.285156 C 126.867188 205.101562 126.488281 205.988281 126.304688 206.636719 C 126.039062 207.59375 125.875 208.507812 125.808594 209.480469 C 123.0625 211.359375 102.753906 225.40625 94.800781 236.132812 C 94.800781 236.132812 94.253906 237.667969 95.34375 239.460938 C 95.34375 239.460938 114.996094 219.738281 123.144531 215.816406 C 121.53125 218.367188 118.632812 221.027344 116.671875 223 C 113.449219 226.234375 113.285156 229.65625 114.453125 233.171875 C 114.0625 234.996094 114.363281 237.304688 114.363281 239.035156 C 114.363281 240.09375 114.390625 241.113281 114.464844 242.113281 C 113.910156 245.207031 112.25 248.222656 111.433594 251.140625 C 110.957031 252.851562 110.679688 254.480469 110.398438 256.253906 C 110.242188 257.230469 109.980469 258.214844 109.835938 259.199219 C 109.8125 259.378906 109.792969 259.5625 109.78125 259.742188 C 104.992188 266.960938 97.535156 274.183594 95.105469 282.640625 C 93.328125 284.832031 89.0625 290.621094 85.992188 299.0625 L 78.21875 319.53125 C 78.21875 319.53125 77.148438 321.730469 77.578125 323.578125 C 75.839844 324.878906 74.996094 327.210938 75.523438 329.230469 C 76.171875 331.679688 79.460938 331.90625 81.089844 333.515625 C 81.898438 334.320312 82.558594 335.398438 83.644531 335.902344 C 84.964844 336.519531 85.925781 336.242188 87.128906 336.113281 C 88.050781 337.046875 90.21875 337.34375 90.75 336.261719 C 91.542969 337.304688 93.882812 337.265625 94.039062 335.992188 C 94.625 336.519531 95.171875 336.886719 96.042969 336.769531 C 96.765625 336.679688 97.21875 336.414062 97.351562 335.878906 C 98.003906 336.425781 98.839844 336.695312 99.726562 336.585938 C 100.332031 336.515625 100.988281 336.15625 101.113281 335.640625 C 102.105469 336.003906 103.101562 336.386719 104.136719 335.796875 C 104.992188 335.3125 105.207031 334.109375 104.453125 333.402344 C 103.78125 332.777344 102.394531 333.082031 101.554688 332.554688 C 101.121094 332.285156 100.804688 331.898438 100.472656 331.515625 C 101.75 331.558594 103.027344 331.722656 104.246094 332.105469 C 106.144531 332.695312 107.203125 334.257812 109.085938 334.925781 C 113.019531 336.316406 117.78125 336.210938 122.140625 336.414062 C 125.183594 336.550781 128.042969 335.964844 130.992188 336.070312 C 133.871094 336.171875 136.667969 336.40625 139.671875 336.414062 C 142.414062 336.417969 145.445312 336.355469 147.980469 335.722656 C 148.972656 335.46875 150.089844 334.859375 151.234375 334.257812 C 151.953125 334.121094 152.671875 334.011719 153.402344 334.023438 C 155.097656 334.042969 156.792969 334.304688 158.503906 334.367188 C 161.210938 334.464844 163.914062 335.074219 166.554688 335.558594 C 169.726562 336.136719 172.609375 336.546875 175.824219 336.246094 C 178.800781 335.957031 181.644531 335.363281 184.675781 335.21875 C 187.671875 335.070312 190.710938 335.21875 193.714844 335.21875 C 195.847656 335.21875 197.769531 334.886719 199.714844 334.566406 C 202.410156 335.289062 205.101562 336.007812 207.8125 335.898438 C 209.804688 335.824219 211.460938 335.691406 213.226562 334.878906 C 213.902344 334.566406 215.398438 333.945312 216.488281 333.308594 C 217.28125 333.722656 218.875 333.433594 219.738281 333.605469 C 220.785156 333.800781 221.851562 334.105469 222.902344 334.433594 C 224.152344 334.820312 226.5 336.007812 227.871094 335.292969 Z M 227.871094 335.292969 " fill-opacity="1" fill-rule="nonzero"/></g></svg>