<svg xmlns="http://www.w3.org/2000/svg" xmlns:xlink="http://www.w3.org/1999/xlink" width="500" zoomAndPan="magnify" viewBox="0 0 375 374.999991" height="500" preserveAspectRatio="xMidYMid meet" version="1.0"><defs><clipPath id="8a7a68d101"><path d="M 77.4375 114.304688 L 297.9375 114.304688 L 297.9375 337.804688 L 77.4375 337.804688 Z M 77.4375 114.304688 " clip-rule="nonzero"/></clipPath></defs><g clip-path="url(#8a7a68d101)"><path fill="#231f20" d="M 289.070312 239.460938 C 285.605469 236.132812 270.09375 230.996094 270.09375 230.996094 C 270.09375 230.996094 270.808594 229.671875 271.796875 228.910156 C 272.800781 228.152344 273.984375 222.085938 273.984375 222.085938 L 283.6875 224.125 L 290.53125 204.027344 C 290.53125 204.027344 287.640625 198.996094 283.71875 193.828125 C 279.792969 188.65625 282.746094 190.480469 284.175781 187.835938 C 285.605469 185.175781 281.285156 169.808594 281.238281 167.648438 C 281.179688 165.503906 279.125 164.867188 276.539062 162.90625 C 273.957031 160.945312 269.074219 154.574219 269.074219 154.574219 C 270.746094 155.273438 274.777344 155.867188 275.171875 152.996094 C 275.308594 151.945312 275.460938 150.226562 275.660156 149.773438 C 275.855469 149.316406 276.25 149.316406 276.34375 148.964844 C 276.433594 148.632812 276.648438 148.113281 276.648438 148.113281 C 276.648438 148.113281 277.332031 147.324219 277.375 147.050781 C 277.40625 146.792969 277.453125 145.195312 277.453125 145.195312 C 277.453125 145.195312 278.640625 144.285156 279.566406 144.148438 C 280.84375 143.949219 278.046875 139.28125 277.953125 138.308594 L 277.847656 137.140625 C 277.847656 137.140625 278.59375 134.933594 279.09375 133.917969 C 279.597656 132.914062 279.917969 126.011719 279.519531 124.261719 C 279.140625 122.515625 276.554688 118.59375 273.910156 116.996094 C 271.277344 115.386719 268.722656 114.503906 263.007812 114.625 C 250.597656 114.867188 247.265625 125.082031 246.308594 134.980469 C 245.898438 139.375 247.296875 139.480469 245.792969 142.035156 C 244.285156 144.585938 244.285156 144.585938 244.285156 144.585938 C 244.285156 144.585938 241.671875 145.484375 239.96875 144.890625 C 238.265625 144.300781 237.414062 144.011719 235.132812 143.691406 C 232.851562 143.371094 231.9375 143.613281 229.65625 143.296875 C 229.65625 143.296875 225.855469 142.429688 224.804688 142.277344 C 223.757812 142.125 223.710938 141.867188 221.765625 140.347656 C 219.832031 138.839844 219.894531 139.648438 218.390625 140.238281 C 216.882812 140.832031 217.265625 141.335938 215.652344 141.378906 C 214.039062 141.425781 207.257812 143.449219 207.257812 143.449219 C 207.257812 143.449219 207.058594 143.601562 204.503906 142.71875 C 201.949219 141.835938 202.710938 142.824219 201.785156 143.050781 C 200.855469 143.28125 197.707031 144.101562 197.707031 144.101562 C 197.707031 144.101562 195.609375 143.8125 194.210938 143.628906 C 192.8125 143.433594 191.851562 142.597656 190.636719 142.429688 C 189.40625 142.261719 187.777344 143.828125 187.777344 143.828125 C 187.777344 143.828125 184.160156 142.976562 181.191406 142.398438 C 178.242188 141.820312 173.375 142.214844 173.375 142.214844 L 172.753906 143.460938 C 172.753906 143.460938 171.019531 143.765625 168.542969 143.691406 C 166.046875 143.613281 161.4375 144.769531 155.691406 145.773438 C 149.941406 146.761719 144.515625 147.371094 144.515625 147.371094 C 144.515625 147.371094 143.617188 147.429688 142.171875 147.492188 C 140.894531 147.550781 140.546875 148.097656 139.527344 148.34375 C 143.769531 141.578125 150.367188 131.011719 150.445312 130.679688 C 150.535156 130.175781 150.398438 130.054688 149.214844 129.007812 C 148.027344 127.957031 147.070312 127.699219 146.382812 127.804688 C 145.699219 127.910156 142.8125 132.777344 140.089844 137.199219 C 138.507812 139.753906 135.664062 144.238281 133.550781 147.566406 C 132.742188 147.398438 132.027344 147.234375 131.496094 147.109375 C 130.996094 147.109375 130.492188 147.109375 129.488281 147.109375 C 126.433594 147.125 127.316406 149.058594 127.511719 149.785156 C 126.769531 150.347656 125.992188 151.335938 126.3125 152.066406 C 126.355469 152.160156 125.214844 153.390625 125.71875 154.53125 C 125.929688 155 124.882812 154.925781 125.550781 156.6875 C 126.265625 158.558594 123.117188 155.730469 122.464844 158.453125 C 122.296875 159.152344 123.117188 160.304688 123.4375 160.71875 C 106.816406 184.523438 97.585938 199.585938 84.8125 225.492188 C 81.359375 232.5 77.453125 243.019531 77.800781 245.953125 C 78.152344 248.871094 79.078125 249.664062 79.078125 249.664062 C 90.878906 221.765625 102.648438 197.640625 120.777344 173.015625 C 123.847656 168.835938 127.496094 164.378906 127.847656 163.96875 C 128.882812 164.488281 130.355469 165.382812 131.4375 164.503906 C 131.9375 164.089844 131.816406 162.417969 131.816406 162.417969 C 131.816406 162.417969 134.734375 162.601562 136.011719 161.703125 C 137.289062 160.808594 139.984375 157.433594 143.28125 157.355469 C 146.597656 157.28125 159.050781 159.332031 163.265625 159.910156 C 167.460938 160.488281 172.144531 158.179688 172.144531 158.179688 C 172.144531 158.179688 174.457031 167.40625 175.21875 169.65625 C 175.976562 171.890625 174.882812 172.101562 173.164062 176.859375 C 171.445312 181.621094 170.457031 199.300781 170.457031 199.300781 C 170.457031 199.300781 177.285156 196.320312 180.175781 193.492188 C 183.046875 190.679688 195.699219 192.046875 200.550781 193.066406 C 205.402344 194.085938 213.324219 188.398438 213.324219 188.398438 C 213.324219 188.398438 212.609375 193.644531 211.425781 197.050781 C 210.253906 200.453125 208.351562 209.105469 206.011719 210.5625 C 203.667969 212.023438 204.445312 211.597656 203.636719 213.617188 C 202.832031 215.640625 201.632812 219.226562 200.734375 223.195312 C 200.65625 223.515625 200.597656 223.804688 200.535156 224.109375 C 192.355469 225.566406 182.757812 227.347656 174.546875 229.046875 C 155.84375 232.910156 140.332031 239.355469 140.332031 239.355469 L 141.457031 244.144531 C 141.457031 244.144531 174.394531 234.035156 182.183594 233.121094 C 185.164062 232.789062 191.078125 231.984375 197.265625 231.132812 C 184.554688 234.644531 175.382812 238.445312 175.382812 238.445312 L 176.507812 243.230469 C 176.507812 243.230469 183.582031 241.058594 191.929688 238.640625 C 186.105469 242.820312 160.816406 268.40625 159.875 270.214844 C 158.898438 272.039062 155.023438 273.117188 153.851562 273.847656 C 152.679688 274.578125 146.628906 277.148438 140.011719 281.222656 C 133.382812 285.308594 120.929688 303.476562 120.929688 303.476562 L 113.675781 307.035156 L 113.964844 308.144531 L 116.046875 310.484375 C 116.046875 310.484375 112.367188 313.28125 111.121094 313.90625 C 109.871094 314.527344 109.933594 314.726562 109.1875 315.683594 C 108.429688 316.65625 106.617188 318.816406 105.738281 319.40625 C 104.855469 320 101.539062 322.753906 101.523438 324.804688 C 101.507812 326.855469 104.597656 328.421875 104.960938 329.015625 C 105.324219 329.59375 105.675781 330.277344 106.738281 332.285156 C 107.804688 334.304688 111.105469 335.203125 111.425781 335.507812 C 111.742188 335.8125 112.230469 336.144531 112.671875 336.480469 C 113.113281 336.8125 114.160156 336.675781 114.160156 336.675781 C 114.160156 336.675781 114.785156 337.253906 115.269531 337.359375 C 115.742188 337.46875 116.960938 337.058594 116.960938 337.058594 L 119.527344 337.148438 C 119.527344 337.148438 119.953125 337.347656 120.5625 337.375 C 121.1875 337.421875 122.648438 336.8125 122.648438 336.8125 C 122.648438 336.8125 123.574219 336.585938 124.625 336.722656 C 125.671875 336.859375 126.691406 335.933594 126.738281 334.335938 C 126.78125 332.738281 125.902344 331.371094 124.488281 329.925781 C 123.085938 328.484375 120.625 325.65625 120.503906 323.863281 C 120.394531 322.066406 122.691406 317.035156 122.691406 317.035156 C 122.691406 317.035156 123.238281 316.929688 124.121094 317.050781 C 124.988281 317.171875 131.832031 320.609375 133.703125 322.628906 C 135.558594 324.667969 141.351562 327.953125 147.464844 330.214844 C 153.578125 332.480469 182.988281 335.066406 182.988281 335.066406 C 182.988281 335.066406 189.558594 331.324219 191.503906 330.171875 C 193.449219 329.015625 210.769531 319.621094 217.140625 314.785156 C 223.5 309.953125 237.03125 276.160156 237.03125 276.160156 C 237.03125 276.160156 234.964844 288.699219 232.5625 295.859375 C 230.160156 303.019531 220.945312 315.652344 220.945312 315.652344 C 220.945312 315.652344 228.394531 318.449219 230.796875 319.132812 C 233.199219 319.820312 250.035156 319.269531 254.671875 319.195312 C 259.328125 319.121094 266.59375 318.054688 267.308594 318.695312 C 268.023438 319.332031 268.101562 319.421875 269.179688 319.925781 C 270.273438 320.425781 278.851562 320.898438 281.085938 320.929688 C 283.308594 320.957031 290.835938 321.367188 291.960938 320.988281 C 293.085938 320.609375 294.121094 319.5 294.226562 318.722656 C 294.332031 317.933594 292.691406 317.539062 292.691406 317.539062 C 292.691406 317.539062 285.480469 315.484375 283.324219 314.300781 C 281.164062 313.113281 279.582031 311.65625 281.332031 311.898438 C 283.078125 312.140625 293.464844 311.777344 293.464844 311.777344 C 293.464844 311.777344 294.285156 290.144531 295.808594 286.785156 C 297.328125 283.425781 296.082031 258.660156 297.054688 254.160156 C 298.027344 249.585938 292.539062 242.777344 289.070312 239.460938 Z M 289.070312 239.460938 " fill-opacity="1" fill-rule="evenodd"/></g></svg>