<svg xmlns="http://www.w3.org/2000/svg" xmlns:xlink="http://www.w3.org/1999/xlink" width="500" zoomAndPan="magnify" viewBox="0 0 375 374.999991" height="500" preserveAspectRatio="xMidYMid meet" version="1.0"><defs><clipPath id="c5857b586c"><path d="M 85.460938 96 L 349.460938 96 L 349.460938 337 L 85.460938 337 Z M 85.460938 96 " clip-rule="nonzero"/></clipPath></defs><g clip-path="url(#c5857b586c)"><path fill="#231f20" d="M 158.101562 134.699219 C 154.84375 134.699219 150.402344 134.011719 147.851562 133.066406 C 147.851562 133.066406 146.101562 133.53125 145.636719 132.601562 C 145.171875 131.671875 144.820312 130.679688 145.414062 130.214844 C 145.992188 129.75 147.929688 130.308594 148.667969 129.460938 C 149.40625 128.609375 150.03125 123.867188 150.402344 120.820312 C 151.105469 120.597656 151.941406 120.101562 152.277344 119.78125 C 152.792969 119.269531 150.851562 115.054688 150.496094 114.539062 C 150.207031 113.996094 150.945312 112.121094 150.914062 110.933594 C 150.820312 105.421875 147.964844 99.699219 142.847656 97.234375 C 136.847656 94.332031 128.089844 96.734375 124.195312 102.472656 C 120.808594 107.472656 122.027344 119.089844 124.769531 124.476562 C 126.023438 126.929688 125.140625 129.140625 125.125 129.941406 C 125.09375 131.238281 116.640625 138.675781 115.101562 139.25 C 113.703125 139.78125 112.308594 140.070312 110.433594 140.886719 C 108.570312 141.703125 96.558594 153.113281 96.558594 153.113281 C 96.558594 153.113281 93.0625 160.566406 91.203125 164.523438 C 89.339844 168.480469 90.03125 170.582031 90.03125 170.582031 C 90.03125 170.582031 90.960938 176.171875 90.253906 178.03125 C 89.566406 179.890625 88.859375 185.949219 87.464844 189.441406 C 86.070312 192.9375 90.253906 193.175781 91.425781 195.035156 C 92.597656 196.894531 94.921875 194.8125 94.921875 194.8125 C 94.921875 194.8125 100.746094 202.726562 103.085938 204.363281 C 104.355469 205.242188 108.347656 207.695312 111.601562 210.132812 C 101.484375 222.632812 93.414062 238.160156 85.492188 252.183594 L 89.566406 254.96875 C 98.707031 240.035156 105.476562 227.183594 115.582031 213.242188 C 116.527344 214.21875 116.71875 213.832031 116.125 215.292969 C 115.550781 216.734375 114.265625 228.800781 114.265625 234.378906 C 114.265625 239.96875 112.40625 254.875 112.40625 263.253906 C 112.40625 271.636719 106.808594 321.476562 106.34375 325.191406 C 105.878906 328.925781 110.542969 327.515625 113.800781 327.050781 C 114.023438 327.019531 114.3125 326.972656 114.652344 326.925781 C 114.136719 328.351562 113.625 329.871094 113.335938 331.011719 C 112.628906 333.800781 113.109375 335.675781 113.109375 335.675781 C 113.109375 335.675781 121.5 335.898438 126.167969 335.898438 C 130.835938 335.898438 132.917969 337.292969 132.917969 335.433594 C 132.917969 333.574219 131.988281 331.234375 130.59375 330.082031 C 129.199219 328.910156 129.886719 330.546875 128.492188 327.757812 C 128.027344 326.84375 127.769531 325.816406 127.640625 324.871094 C 131.25 324.390625 134.667969 324.085938 136.65625 324.265625 C 138.757812 324.457031 141.484375 325.273438 144.242188 326.25 C 144.050781 328.734375 143.875 331.378906 143.984375 332.179688 C 144.210938 333.816406 145.382812 334.503906 149.582031 335.675781 C 153.785156 336.84375 155.40625 335.898438 157.972656 335.898438 C 160.539062 335.898438 167.289062 336.363281 171.492188 336.363281 C 175.679688 336.363281 177.089844 335.65625 176.609375 334.039062 C 176.144531 332.40625 170.785156 332.179688 165.894531 329.617188 C 165.332031 329.328125 164.835938 329.023438 164.371094 328.734375 C 169.039062 327.179688 173.464844 325.191406 173.464844 325.191406 L 172.070312 312.613281 C 172.070312 312.613281 171.605469 290.722656 170.675781 286.058594 C 169.746094 281.410156 170.675781 272.550781 171.140625 264.632812 C 171.605469 256.71875 173 238.542969 173 232.503906 C 173 226.445312 170.210938 216.667969 168.8125 212.246094 C 167.417969 207.824219 163.457031 201.300781 163.457031 198.511719 C 163.457031 195.722656 164.628906 194.554688 164.628906 194.554688 C 164.628906 194.554688 170.449219 193.160156 172.550781 191.765625 C 174.652344 190.371094 178.613281 192.695312 178.613281 192.695312 C 178.613281 192.695312 175.359375 199.21875 175.582031 201.078125 C 175.824219 202.9375 177.21875 208.0625 177.925781 209.921875 C 178.613281 211.78125 196.335938 207.132812 196.335938 207.132812 L 206.585938 194.554688 C 206.585938 194.554688 211.011719 184.78125 211.253906 181.285156 C 211.414062 178.898438 212.117188 177.152344 213.289062 175.339844 C 215.679688 175.871094 218.039062 176.476562 219.511719 177.070312 C 223.585938 178.707031 229.425781 181.847656 229.425781 181.847656 C 229.425781 181.847656 218.824219 179.636719 217.300781 179.28125 C 215.792969 178.929688 214.15625 178 213.804688 178.816406 C 213.449219 179.636719 213.097656 181.03125 213.691406 181.140625 C 214.269531 181.253906 220.683594 183.929688 224.40625 184.988281 C 228.125 186.027344 233.609375 187.199219 233.609375 187.199219 C 233.609375 187.199219 235.3125 189.652344 235.890625 190.453125 C 236.464844 191.269531 237.636719 191.445312 238.101562 191.269531 C 238.566406 191.09375 239.160156 191.207031 239.160156 191.207031 C 239.160156 191.207031 240.15625 192.3125 240.621094 192.421875 C 241.085938 192.550781 241.902344 192.550781 242.320312 192.3125 C 242.722656 192.085938 243.363281 192.421875 243.828125 192.726562 C 244.292969 193.015625 245.511719 192.617188 245.511719 192.617188 C 245.511719 192.617188 247.082031 193.367188 247.550781 193.082031 C 248.015625 192.792969 248.09375 192.3125 248.09375 192.3125 L 249.21875 192.503906 C 249.394531 192.535156 249.378906 191.71875 249.667969 190.675781 C 269.121094 193.898438 324.871094 206.671875 344.890625 207.839844 C 346.347656 207.917969 349.492188 206.527344 349.492188 206.527344 C 315.972656 201.0625 283.378906 194.652344 250.164062 187.601562 C 250.164062 187.601562 250.484375 186.140625 250.417969 185.546875 C 250.355469 184.972656 249.921875 184.507812 249.136719 184.507812 C 248.367188 184.507812 248.109375 186.253906 248.109375 186.253906 L 247.597656 185.148438 C 247.597656 185.148438 247.371094 184.15625 246.492188 183.226562 C 245.625 182.296875 240.203125 178.449219 239.5625 178.160156 C 238.921875 177.871094 230.355469 172.808594 228.785156 171.925781 C 227.917969 171.445312 223.167969 169.136719 219.03125 167.136719 C 219.6875 166.125 220.105469 165.4375 220.105469 165.4375 C 220.105469 165.4375 215.214844 162.871094 213.578125 162.40625 C 211.941406 161.941406 206.34375 159.84375 205.191406 159.140625 C 204.019531 158.433594 193.996094 154.25 190.980469 153.546875 C 187.949219 152.839844 172.34375 138.882812 170 137.007812 C 167.675781 135.148438 167.898438 136.078125 166.039062 135.148438 C 164.164062 134.234375 161.371094 134.699219 158.101562 134.699219 Z M 158.101562 134.699219 " fill-opacity="1" fill-rule="evenodd"/></g></svg>