<svg xmlns="http://www.w3.org/2000/svg" xmlns:xlink="http://www.w3.org/1999/xlink" width="500" zoomAndPan="magnify" viewBox="0 0 375 374.999991" height="500" preserveAspectRatio="xMidYMid meet" version="1.0"><defs><clipPath id="dcbeda580b"><path d="M 102 37.5 L 273.375 37.5 L 273.375 337.5 L 102 337.5 Z M 102 37.5 " clip-rule="nonzero"/></clipPath></defs><g clip-path="url(#dcbeda580b)"><path fill="#000000" d="M 259.300781 307.796875 C 259.300781 307.75 259.300781 307.75 259.300781 307.75 C 259.300781 307.75 259.300781 307.796875 259.300781 307.796875 Z M 254.148438 331.410156 C 252.460938 332.722656 250.257812 333.238281 248.246094 333.609375 C 245.574219 334.078125 242.949219 333.75 240.28125 334.078125 C 237.796875 334.359375 235.21875 334.96875 232.738281 334.921875 C 231.519531 334.921875 230.628906 334.265625 229.550781 333.703125 C 228.566406 333.191406 227.535156 332.957031 226.550781 332.441406 C 225.472656 331.878906 224.304688 331.410156 223.179688 330.847656 C 222.851562 330.707031 222.476562 330.566406 222.148438 330.425781 C 220.789062 329.863281 219.335938 329.675781 217.976562 329.066406 C 215.261719 327.847656 212.542969 326.441406 209.730469 325.457031 C 208.140625 324.894531 206.6875 324.335938 205.421875 323.117188 C 204.296875 322.039062 203.3125 321.148438 201.859375 320.492188 C 200.546875 319.882812 198.957031 319.507812 197.785156 318.617188 C 196.753906 317.820312 196.238281 316.464844 195.722656 315.292969 C 194.925781 313.558594 194.363281 311.683594 193.566406 309.902344 C 193.378906 309.714844 193.238281 309.527344 193.097656 309.386719 C 192.488281 308.589844 192.066406 307.75 191.597656 306.90625 C 190.757812 305.265625 190.101562 303.53125 189.304688 301.84375 C 187.851562 298.800781 187.382812 295.660156 186.679688 292.378906 C 186.304688 290.695312 186.210938 288.867188 185.601562 287.226562 C 185.132812 285.867188 184.664062 284.507812 184.289062 283.105469 C 183.492188 280.058594 181.996094 277.527344 180.824219 274.671875 C 180.261719 273.21875 179.605469 271.8125 178.949219 270.40625 C 178.621094 269.65625 178.292969 268.8125 177.964844 268.015625 C 177.355469 270.171875 177.167969 272.609375 176.933594 274.765625 C 176.652344 277.199219 176.183594 279.683594 175.339844 282.074219 C 175.058594 282.824219 174.734375 283.570312 174.359375 284.273438 C 174.453125 284.789062 174.546875 285.304688 174.59375 285.585938 C 174.6875 286.523438 174.964844 287.507812 175.058594 288.492188 C 175.246094 290.554688 175.246094 292.613281 175.574219 294.675781 C 175.714844 295.707031 175.621094 296.878906 175.902344 297.816406 C 175.011719 297.910156 174.078125 298.003906 173.1875 298.003906 C 172.8125 298.003906 171.96875 298.097656 171.359375 298.097656 C 171.5 299.363281 171.453125 300.625 170.84375 300.8125 C 170.09375 301 168.828125 300.859375 168.03125 300.8125 C 167.609375 300.8125 167.1875 300.8125 166.765625 300.8125 C 166.625 301.375 165.738281 305.453125 165.644531 305.78125 C 165.316406 306.953125 164.988281 308.21875 164.660156 309.433594 C 164.191406 311.261719 163.488281 313.136719 163.160156 314.964844 C 162.691406 322.085938 158.054688 324.007812 156.085938 324.570312 C 154.070312 325.128906 152.007812 325.363281 149.945312 325.128906 C 148.167969 324.945312 146.433594 324.523438 144.699219 324.195312 C 143.011719 323.867188 141.375 323.820312 139.6875 323.726562 C 136.828125 323.539062 134.203125 322.273438 131.394531 321.664062 C 130.597656 325.082031 128.019531 324.523438 125.066406 324.523438 C 121.929688 324.570312 120.851562 323.820312 116.960938 323.960938 C 115.371094 324.007812 111.996094 324.476562 110.402344 324.476562 C 108.808594 324.476562 107.453125 323.679688 105.859375 323.585938 C 104.828125 323.539062 102.671875 323.632812 102.203125 322.367188 C 101.78125 321.195312 103.1875 320.070312 104.078125 319.976562 C 105.90625 319.742188 109.277344 318.710938 112.089844 317.585938 C 110.964844 316.976562 109.980469 315.949219 108.996094 315.246094 C 107.359375 314.074219 107.875 312.855469 108.480469 311.121094 C 109.699219 307.75 109.511719 300.4375 110.355469 296.972656 C 110.871094 294.675781 111.574219 292.472656 111.949219 290.179688 C 112.230469 288.164062 112.558594 286.148438 112.839844 284.132812 C 113.496094 279.542969 114.386719 275.042969 114.996094 270.453125 C 115.464844 267.078125 115.605469 263.332031 116.726562 260.144531 C 116.589844 257.335938 117.054688 254.804688 118.882812 252.414062 C 119.914062 251.054688 121.554688 250.351562 122.914062 249.464844 C 124.273438 248.527344 125.488281 247.402344 126.800781 246.371094 C 129.660156 244.167969 132.800781 242.433594 136.078125 241.21875 C 139.125 240.09375 141.515625 237.5625 144.417969 236.109375 C 145.824219 235.40625 147.230469 234.75 148.730469 234.1875 C 149.902344 233.71875 150.695312 233.019531 151.539062 232.082031 L 147.324219 232.035156 C 147.042969 230.160156 146.621094 228.144531 146.996094 226.222656 L 158.519531 225.988281 C 158.148438 225.613281 157.726562 225.238281 157.492188 224.820312 C 157.117188 224.164062 156.835938 223.367188 156.320312 222.757812 C 155.851562 222.195312 155.195312 221.820312 154.679688 221.304688 C 153.835938 220.367188 153.320312 219.289062 152.804688 218.164062 C 152.054688 218.539062 151.304688 218.820312 150.507812 218.914062 C 149.199219 219.054688 147.839844 218.773438 146.527344 218.773438 C 144.464844 218.773438 141.46875 219.335938 141.515625 216.246094 C 141.5625 213.667969 142.496094 210.949219 143.199219 208.511719 C 143.949219 206.03125 144.652344 203.640625 144.839844 201.015625 C 144.980469 198.628906 145.027344 196.238281 145.261719 193.847656 C 145.027344 193.472656 144.792969 193.097656 144.652344 192.910156 C 143.714844 191.738281 142.871094 190.570312 142.261719 189.164062 C 142.027344 188.695312 141.140625 187.054688 140.8125 186.023438 C 140.15625 185.695312 139.5 185.179688 138.9375 184.710938 C 138.65625 184.476562 138.140625 183.960938 137.625 183.585938 C 137.4375 183.679688 137.203125 183.726562 137.015625 183.773438 C 133.035156 185.132812 128.863281 183.960938 125.628906 181.152344 C 124.085938 179.839844 122.960938 178.058594 121.507812 176.605469 C 120.007812 175.105469 118.226562 174.125 116.449219 173.046875 C 114.714844 172.015625 113.214844 170.703125 111.855469 169.15625 C 111.152344 168.359375 108.714844 166.019531 109.886719 164.847656 C 110.402344 164.332031 111.433594 164.238281 112.089844 164.050781 C 113.027344 163.769531 114.011719 163.488281 114.855469 162.972656 C 116.496094 161.988281 117.617188 160.253906 118.976562 158.894531 C 120.335938 157.539062 121.882812 156.320312 123.570312 155.382812 C 124.972656 154.585938 126.425781 154.351562 127.972656 154.304688 C 128.675781 153.742188 129.285156 153.132812 130.175781 152.898438 C 129.894531 152.570312 129.660156 152.148438 129.566406 151.726562 C 129.472656 151.164062 129.800781 150.132812 130.222656 149.714844 C 129.894531 149.433594 129.613281 149.105469 129.472656 148.683594 C 129.191406 147.933594 129.378906 146.949219 130.035156 146.574219 C 128.863281 145.027344 132.285156 143.152344 133.734375 143.058594 C 132.660156 127.457031 127.503906 45.183594 135.75 37.5 C 131.160156 69.640625 136.6875 133.128906 137.578125 142.589844 C 138.65625 142.542969 139.921875 142.824219 140.625 143.621094 C 141.09375 144.136719 141.375 144.886719 141.234375 145.636719 C 141.140625 146.058594 140.90625 146.339844 140.625 146.574219 C 141.933594 146.714844 141.515625 150.179688 141.839844 151.023438 C 142.496094 152.757812 142.355469 154.164062 141.234375 155.570312 C 140.90625 155.992188 140.578125 156.273438 140.203125 156.507812 C 140.4375 156.929688 140.4375 157.539062 140.390625 157.960938 C 140.390625 158.007812 140.390625 158.054688 140.34375 158.101562 C 140.953125 158.007812 141.839844 158.101562 142.355469 158.007812 C 143.152344 157.914062 143.949219 157.867188 144.746094 157.726562 C 145.449219 157.585938 146.433594 157.351562 147.136719 157.679688 C 147.792969 158.007812 148.355469 158.613281 149.011719 158.988281 C 150.414062 159.738281 152.101562 159.832031 153.648438 159.597656 C 155.335938 159.363281 156.789062 159.363281 158.425781 159.925781 C 159.878906 160.441406 161.191406 160.769531 162.503906 160.207031 C 162.363281 159.503906 162.175781 158.847656 162.035156 158.289062 C 161.753906 157.257812 161.285156 156.320312 160.910156 155.335938 C 160.675781 155.242188 160.441406 155.101562 160.253906 155.007812 C 159.128906 154.445312 158.753906 153.648438 158.425781 152.429688 C 158.242188 151.820312 158.101562 151.210938 157.960938 150.601562 C 157.867188 150.367188 157.726562 149.949219 157.585938 149.574219 C 156.835938 149.574219 156.085938 149.011719 155.804688 148.214844 C 155.476562 147.371094 155.242188 146.292969 155.054688 145.449219 C 154.867188 144.699219 154.539062 143.996094 154.304688 143.292969 C 154.023438 142.496094 153.554688 141.609375 153.695312 140.765625 C 153.789062 140.109375 154.304688 139.828125 154.867188 139.921875 C 154.773438 139.078125 154.492188 138.234375 154.304688 137.484375 C 153.882812 135.515625 153.414062 133.6875 153.554688 131.628906 C 153.648438 130.550781 154.492188 127.644531 155.851562 127.410156 C 156.179688 125.441406 157.210938 124.414062 159.175781 123.757812 C 161.378906 123.054688 163.722656 122.773438 165.972656 122.726562 C 168.171875 122.726562 170.65625 122.726562 172.671875 123.851562 C 174.78125 125.019531 175.574219 127.316406 175.996094 129.660156 C 176.371094 131.816406 176.699219 133.96875 176.933594 136.125 C 177.308594 135.84375 177.777344 135.703125 178.246094 135.890625 C 178.996094 136.265625 178.902344 137.34375 178.902344 138.046875 C 178.902344 139.828125 178.574219 141.652344 178.339844 143.386719 C 178.199219 144.371094 177.871094 144.792969 177.074219 144.839844 C 177.121094 145.355469 177.214844 145.964844 177.214844 146.433594 C 177.214844 147.183594 177.308594 147.933594 177.308594 148.683594 C 177.308594 149.761719 176.886719 150.835938 176.230469 151.679688 C 176.652344 152.570312 177.074219 153.507812 177.496094 154.398438 C 177.777344 155.007812 178.105469 155.523438 178.480469 156.039062 C 179.933594 155.664062 181.480469 155.429688 182.886719 156.085938 C 184.476562 156.835938 185.601562 158.519531 186.820312 159.832031 C 189.492188 162.832031 192.535156 165.316406 194.457031 168.96875 C 196.472656 172.765625 198.113281 176.886719 199.332031 181.058594 C 200.40625 184.898438 201.578125 188.882812 202.234375 192.863281 C 202.9375 196.988281 202.375 200.78125 198.957031 203.125 C 199.191406 203.921875 199.378906 204.765625 199.800781 205.375 C 200.359375 206.21875 201.25 206.546875 201.8125 207.53125 C 203.03125 209.683594 203.875 211.652344 202.09375 213.761719 C 201.578125 214.371094 201.015625 214.886719 200.453125 215.402344 C 201.578125 216.570312 202.375 217.648438 202.984375 219.289062 C 203.5 220.835938 205.421875 222.054688 206.546875 223.132812 C 206.78125 223.320312 206.96875 223.554688 207.15625 223.742188 C 208.417969 223.460938 210.199219 223.695312 211.183594 224.210938 C 212.589844 224.957031 213.433594 226.269531 213.621094 227.910156 C 213.667969 228.425781 213.667969 228.941406 213.621094 229.410156 C 222.289062 230.394531 242.574219 232.878906 248.902344 234.984375 C 248.996094 235.875 248.902344 236.90625 248.902344 237.609375 C 248.855469 238.453125 248.667969 239.203125 248.480469 239.953125 C 241.21875 237.421875 219.945312 234.9375 212.449219 234.140625 C 213.433594 234.9375 214.464844 235.640625 215.355469 236.484375 C 216.058594 237.140625 216.523438 237.890625 217.039062 238.734375 C 217.601562 239.671875 217.929688 240.84375 218.632812 241.683594 C 219.945312 243.230469 221.164062 244.683594 222.007812 246.605469 C 222.898438 248.527344 223.273438 250.539062 224.679688 252.132812 C 225.753906 253.351562 226.175781 255.085938 226.082031 256.773438 C 226.597656 257.195312 227.160156 257.617188 227.535156 258.085938 C 228.238281 258.878906 228.238281 259.816406 229.222656 260.285156 C 230.066406 260.707031 231.003906 260.894531 231.566406 261.738281 C 232.082031 262.535156 232.082031 263.800781 232.128906 264.738281 C 232.128906 265.113281 232.128906 265.582031 232.082031 266.050781 C 232.878906 266.65625 233.625 267.5 234.234375 268.15625 C 235.453125 269.421875 236.203125 270.828125 237.09375 272.375 C 238.96875 275.558594 241.730469 277.996094 243.324219 281.417969 C 244.121094 283.195312 244.871094 284.882812 245.996094 286.476562 C 247.167969 288.117188 247.964844 289.945312 249.089844 291.582031 C 249.976562 292.894531 251.101562 294.066406 251.945312 295.425781 C 252.882812 296.925781 253.351562 298.613281 254.382812 300.015625 C 255.882812 302.078125 257.429688 304.28125 258.597656 306.578125 C 258.972656 307.140625 259.394531 307.703125 259.769531 308.214844 C 260.800781 309.667969 261.550781 311.355469 262.347656 313.042969 C 263.050781 314.636719 263.988281 316.089844 264.644531 317.726562 C 265.253906 319.179688 265.910156 321.054688 266.796875 322.320312 C 267.21875 322.929688 267.96875 323.773438 267.640625 324.617188 C 267.546875 324.894531 267.21875 325.269531 266.890625 325.644531 C 267.265625 326.207031 267.640625 326.769531 268.015625 327.285156 C 268.578125 327.988281 269.375 328.457031 269.984375 329.066406 C 271.109375 330.191406 272.5625 331.925781 272.984375 333.515625 C 273.21875 334.3125 273.125 336.046875 272.09375 335.578125 C 271.765625 336.046875 271.15625 336.1875 270.59375 336 C 270.40625 336.28125 270.125 336.515625 269.75 336.609375 C 269.1875 336.796875 268.671875 336.609375 268.15625 336.421875 C 267.640625 336.890625 266.84375 337.171875 266.378906 337.171875 C 265.394531 337.125 264.925781 336.609375 264.316406 336.09375 C 263.894531 336.703125 263.378906 337.171875 262.675781 337.265625 C 260.519531 337.5 258.691406 336.515625 257.382812 335.296875 C 256.726562 334.6875 255.929688 333.703125 255.320312 333.003906 C 255.085938 332.441406 254.523438 331.925781 254.148438 331.410156 Z M 254.148438 331.410156 " fill-opacity="1" fill-rule="nonzero"/></g></svg>