<svg xmlns="http://www.w3.org/2000/svg" xmlns:xlink="http://www.w3.org/1999/xlink" width="500" zoomAndPan="magnify" viewBox="0 0 375 374.999991" height="500" preserveAspectRatio="xMidYMid meet" version="1.0"><defs><clipPath id="799638eefc"><path d="M 59.617188 37.5 L 304 37.5 L 304 347 L 59.617188 347 Z M 59.617188 37.5 " clip-rule="nonzero"/></clipPath></defs><g clip-path="url(#799638eefc)"><path fill="#000000" d="M 59.734375 56.925781 C 59.734375 56.925781 62.21875 50.320312 78.195312 50.964844 C 78.195312 50.964844 137.644531 52.804688 180.566406 54.195312 C 181.210938 54.195312 181.855469 54.246094 182.453125 54.246094 C 182.304688 53.898438 182.15625 53.550781 182.007812 53.199219 C 181.0625 50.867188 180.46875 48.234375 180.21875 45.796875 C 180.070312 44.308594 180.019531 42.816406 179.671875 41.324219 C 179.425781 40.132812 179.425781 38.691406 179.128906 37.5 C 179.476562 37.699219 179.921875 37.898438 180.167969 37.996094 C 180.914062 38.246094 181.660156 38.394531 182.453125 38.644531 C 183.792969 39.039062 184.882812 39.785156 185.03125 41.128906 C 186.273438 41.175781 187.664062 42.71875 187.316406 44.007812 C 185.777344 43.660156 184.636719 45.699219 184.289062 47.039062 C 183.890625 48.730469 184.535156 50.417969 185.28125 51.910156 C 187.363281 51.3125 189.546875 51.113281 191.78125 51.3125 C 193.46875 51.414062 195.207031 51.761719 196.84375 52.355469 C 196.894531 52.308594 196.894531 52.257812 196.941406 52.207031 C 197.785156 50.667969 198.53125 48.878906 198.082031 47.089844 C 197.734375 45.75 196.59375 43.710938 195.058594 44.058594 C 194.710938 42.765625 196.097656 41.226562 197.390625 41.175781 C 197.585938 39.835938 198.679688 39.140625 199.96875 38.691406 C 200.714844 38.445312 201.507812 38.296875 202.253906 38.046875 C 202.5 37.945312 202.898438 37.75 203.292969 37.550781 C 202.996094 38.792969 202.996094 40.183594 202.75 41.375 C 202.449219 42.867188 202.351562 44.355469 202.203125 45.847656 C 201.953125 48.582031 201.210938 51.5625 200.070312 54.09375 C 200.019531 54.195312 199.96875 54.292969 199.917969 54.394531 C 199.871094 54.542969 199.769531 54.691406 199.671875 54.839844 C 200.117188 54.839844 200.515625 54.890625 200.960938 54.890625 C 212.671875 55.289062 221.058594 55.585938 223.191406 55.734375 C 223.191406 54.492188 223.191406 53.152344 224.183594 52.65625 C 225.675781 51.910156 226.515625 53.898438 226.617188 55.386719 C 226.914062 55.335938 227.261719 55.386719 227.609375 55.386719 C 228.007812 52.554688 230.835938 49.773438 233.019531 51.859375 C 234.257812 50.964844 236.390625 51.363281 237.285156 52.605469 C 237.78125 52.007812 238.425781 51.609375 239.320312 51.957031 C 239.914062 52.207031 240.710938 52.953125 241.304688 53.648438 C 241.902344 53.199219 242.496094 52.851562 243.4375 53.550781 C 244.132812 54.09375 244.578125 55.1875 244.828125 56.132812 L 248.203125 56.230469 C 249.046875 53.597656 252.023438 50.867188 254.257812 53.199219 C 254.753906 52.605469 255.347656 52.109375 256.042969 52.058594 C 256.984375 52.007812 257.582031 52.703125 258.175781 53.351562 C 258.671875 52.851562 259.21875 52.40625 259.914062 52.503906 C 260.460938 52.554688 261.304688 53.25 261.601562 53.898438 C 262.988281 53.5 264.132812 55.488281 264.777344 56.730469 L 278.125 57.125 C 278.125 57.125 279.710938 59.910156 277.875 62.292969 L 264.824219 61.699219 C 264.777344 61.847656 264.726562 62.046875 264.675781 62.246094 C 264.132812 64.132812 263.734375 66.019531 263.089844 67.859375 C 262.445312 69.746094 261.949219 71.4375 262.195312 73.425781 C 262.394531 75.164062 261.898438 76.453125 260.707031 77.546875 C 261.054688 78.441406 261.5 79.335938 261.203125 80.332031 C 260.957031 81.175781 259.914062 82.21875 258.871094 82.417969 C 258.773438 83.660156 258.472656 85.347656 257.976562 86.640625 C 259.765625 88.480469 261.898438 90.316406 263.039062 92.601562 C 264.429688 95.285156 264.675781 98.964844 264.578125 101.992188 C 264.480469 105.421875 263.238281 108.800781 262.144531 111.980469 C 261.003906 115.261719 259.121094 117.496094 255.945312 118.6875 C 253.265625 119.730469 250.484375 119.78125 247.707031 119.683594 C 247.160156 120.625 246.613281 121.71875 246.265625 122.214844 C 245.226562 123.558594 244.035156 124.503906 243.390625 126.140625 C 242.199219 129.171875 240.113281 130.761719 237.085938 131.457031 C 236.542969 131.609375 235.648438 131.855469 234.707031 132.054688 C 236.542969 138.015625 237.433594 144.328125 238.078125 150.589844 C 238.425781 153.964844 239.46875 157.195312 240.015625 160.574219 C 240.460938 163.359375 241.902344 167.582031 240.859375 170.265625 C 240.015625 172.449219 239.023438 174.238281 237.433594 175.53125 C 237.484375 176.027344 237.484375 176.574219 237.535156 176.972656 C 237.582031 177.371094 237.632812 177.71875 237.683594 178.113281 C 238.527344 178.363281 239.269531 178.808594 240.015625 179.007812 C 240.609375 179.15625 241.304688 179.15625 241.949219 179.40625 C 242.546875 179.65625 242.84375 180.101562 243.390625 180.351562 C 243.488281 181.890625 243.191406 183.132812 242.644531 184.523438 C 241.800781 183.976562 240.511719 183.035156 239.269531 182.734375 C 240.0625 184.671875 240.808594 186.808594 241.75 188.746094 C 242.84375 190.933594 244.332031 193.269531 244.777344 195.703125 C 244.925781 196.597656 244.878906 197.742188 244.925781 198.734375 C 246.960938 200.472656 249.09375 202.3125 251.230469 203.753906 C 253.613281 205.292969 256.042969 206.683594 258.472656 208.074219 C 259.515625 208.671875 259.914062 209.46875 260.609375 210.410156 C 261.253906 211.257812 262.246094 211.800781 262.839844 212.695312 C 263.535156 213.691406 263.585938 214.933594 263.882812 216.074219 C 264.179688 217.269531 264.875 218.609375 264.824219 219.851562 C 264.777344 221.09375 263.734375 222.832031 262.691406 224.222656 C 263.140625 224.921875 263.535156 225.714844 263.933594 226.3125 C 264.527344 227.253906 265.222656 228.050781 265.917969 228.945312 C 267.308594 230.683594 268.597656 232.472656 269.789062 234.359375 C 271.128906 236.449219 272.21875 238.734375 273.460938 240.871094 C 274.601562 242.808594 276.4375 244.445312 276.835938 246.78125 C 277.082031 248.273438 276.835938 250.0625 276.191406 251.550781 C 277.332031 252.597656 278.125 254.335938 278.820312 255.625 C 279.761719 257.414062 280.210938 259.203125 280.308594 261.242188 C 280.40625 263.378906 280.308594 265.464844 280.058594 267.550781 C 279.8125 269.789062 280.058594 271.925781 280.011719 274.210938 C 280.011719 275.152344 279.710938 276.296875 279.316406 277.390625 C 280.257812 278.484375 281.351562 280.96875 281.648438 281.710938 C 282.390625 283.550781 282.242188 285.488281 282.242188 287.527344 C 282.242188 291.699219 282.242188 295.824219 281.996094 299.898438 C 281.894531 301.339844 282.046875 302.878906 282.34375 304.320312 L 282.390625 304.320312 C 284.476562 304.171875 284.574219 307.152344 283.683594 308.691406 C 284.625 309.191406 285.816406 312.417969 286.214844 313.113281 C 286.660156 313.910156 287.40625 314.753906 287.652344 315.648438 C 287.75 315.996094 287.75 316.492188 287.652344 316.992188 C 290.234375 318.828125 292.863281 320.46875 295.441406 322.308594 C 297.875 324.046875 301.050781 325.882812 302.835938 328.417969 C 307.75 335.324219 289.636719 333.585938 286.808594 332.792969 C 283.484375 331.898438 280.855469 330.109375 278.273438 327.921875 C 277.132812 327.722656 275.992188 327.523438 274.851562 327.425781 C 271.773438 327.175781 266.8125 326.28125 267.207031 321.910156 C 267.40625 319.972656 268.199219 318.28125 268.25 316.292969 C 268.300781 314.308594 268.300781 312.71875 268.84375 310.78125 C 269.09375 310.132812 269.492188 310.183594 269.9375 310.382812 C 269.988281 309.734375 270.035156 309.089844 270.085938 308.492188 C 269.6875 308.246094 269.339844 307.949219 269.191406 307.5 C 269.042969 307.054688 269.191406 306.308594 269.492188 305.859375 C 268.597656 304.964844 267.804688 304.023438 267.058594 303.027344 C 265.917969 301.4375 265.324219 299.601562 264.328125 297.910156 C 263.335938 296.121094 261.949219 294.679688 260.957031 292.941406 C 259.914062 291.105469 259.21875 289.710938 258.96875 287.574219 C 258.773438 285.9375 258.523438 284.347656 258.425781 282.707031 C 256.242188 282.109375 253.910156 282.210938 252.570312 279.726562 C 251.128906 276.992188 250.484375 273.863281 248.945312 271.230469 C 247.257812 268.246094 245.175781 265.960938 243.738281 262.78125 C 242.496094 260.050781 241.355469 256.671875 239.320312 254.484375 C 236.789062 251.75 234.160156 248.917969 231.332031 246.433594 C 229.792969 246.832031 228.304688 247.328125 226.714844 247.726562 C 224.085938 248.371094 221.007812 249.664062 218.328125 249.464844 C 215.402344 249.265625 212.671875 249.066406 209.695312 249.265625 C 206.816406 249.414062 203.988281 250.359375 201.109375 250.359375 C 198.777344 250.359375 196.792969 249.316406 194.808594 248.421875 C 193.21875 252.894531 190.988281 257.414062 188.953125 261.589844 C 187.664062 264.273438 186.472656 266.957031 185.28125 269.6875 C 184.386719 271.726562 183.394531 275.203125 180.964844 275.652344 C 179.175781 275.949219 176.746094 274.558594 174.761719 273.5625 C 174.117188 274.605469 173.222656 275.550781 172.527344 276.496094 C 171.535156 277.9375 170.839844 279.476562 169.949219 280.96875 C 168.460938 283.453125 164.390625 286.136719 161.761719 287.226562 C 160.765625 287.625 159.476562 287.875 158.238281 288.023438 C 156.054688 292.496094 150.097656 296.421875 147.023438 299.601562 C 142.753906 303.972656 138.488281 307.75 133.722656 311.476562 C 132.085938 312.765625 130 313.960938 128.414062 315.5 C 130.152344 316.34375 129.503906 317.835938 128.363281 318.929688 C 128.910156 320.417969 129.457031 321.710938 130.347656 323.203125 C 131.488281 325.039062 131.339844 326.53125 131.589844 328.714844 C 131.835938 330.804688 132.382812 333.140625 130.894531 334.679688 C 129.902344 335.671875 128.613281 336.121094 127.320312 336.566406 C 127.125 339.003906 126.726562 341.484375 125.4375 343.175781 C 122.707031 346.804688 110.300781 347.25 107.96875 342.925781 C 106.480469 340.195312 109.359375 337.3125 110.597656 335.125 C 111.9375 332.742188 112.734375 330.109375 113.675781 327.523438 C 111.9375 325.238281 113.875 320.371094 115.660156 318.234375 C 114.816406 317.4375 114.570312 316.097656 115.066406 315.003906 C 115.609375 313.859375 116.554688 313.613281 117.546875 313.5625 C 118.140625 310.679688 120.078125 307.898438 121.417969 305.511719 C 124.941406 299.300781 127.519531 292.992188 130.347656 286.484375 C 132.433594 281.613281 136.699219 275.453125 142.308594 275.054688 C 141.960938 271.773438 142.308594 268.199219 143.199219 265.214844 C 144.09375 262.285156 146.921875 259.652344 148.460938 257.019531 C 149.503906 255.230469 149.800781 253.292969 150.59375 251.453125 C 151.4375 249.613281 152.382812 248.273438 152.976562 246.285156 C 153.917969 242.90625 155.457031 239.875 156.847656 236.695312 C 157.839844 234.359375 159.675781 230.585938 161.5625 228.347656 C 160.570312 227.15625 159.675781 225.816406 159.03125 224.523438 C 158.085938 222.632812 156.449219 217.664062 157.742188 215.777344 C 158.484375 214.636719 160.074219 214.285156 161.015625 213.394531 C 162.15625 212.300781 162.703125 210.757812 163.597656 209.515625 C 165.382812 207.03125 167.714844 204.5 169.796875 202.261719 C 171.386719 200.574219 173.222656 198.933594 175.207031 197.640625 C 175.554688 196.796875 176.101562 195.902344 176.398438 195.207031 C 177.492188 192.722656 178.679688 191.132812 179.671875 188.597656 C 180.019531 187.804688 182.800781 183.828125 184.933594 181.992188 C 183.542969 182.386719 181.507812 182.6875 180.765625 181.246094 C 180.21875 180.203125 181.558594 179.109375 182.503906 178.164062 C 180.914062 178.113281 179.625 177.765625 178.929688 175.78125 C 178.332031 174.191406 177.6875 172.449219 177.144531 170.761719 C 174.960938 170.859375 172.328125 170.910156 171.089844 169.023438 C 169.5 166.636719 170.394531 162.910156 170.640625 160.277344 C 170.640625 160.128906 170.640625 160.027344 170.691406 159.878906 C 170.691406 159.285156 170.691406 158.6875 170.691406 158.089844 C 170.691406 155.707031 170.394531 153.269531 170.046875 150.9375 C 169.699219 148.351562 169.648438 145.816406 169.203125 143.234375 C 168.804688 141 168.804688 138.664062 168.558594 136.378906 C 168.359375 134.488281 168.65625 132.652344 168.707031 130.8125 C 168.113281 130.515625 167.617188 130.214844 167.367188 129.867188 C 166.722656 128.972656 167.21875 127.234375 167.121094 126.191406 C 166.96875 124.402344 166.175781 120.328125 168.507812 119.632812 C 168.160156 118.839844 167.914062 118.042969 167.914062 117 C 167.914062 115.308594 168.210938 114.664062 169.351562 114.117188 C 168.804688 112.179688 169.300781 110.191406 170.988281 109.445312 C 170.839844 108.402344 170.890625 107.359375 171.039062 106.367188 C 171.238281 104.976562 172.03125 104.476562 173.023438 103.632812 C 174.613281 102.242188 176.449219 101.296875 178.183594 100.207031 C 177.988281 99.507812 177.789062 98.664062 177.539062 97.96875 C 175.109375 97.074219 172.527344 96.429688 170.195312 95.285156 C 169.996094 95.980469 169.601562 96.578125 168.957031 96.480469 C 168.0625 96.328125 167.21875 94.789062 166.96875 94.042969 C 166.277344 92.207031 167.269531 89.570312 168.0625 87.535156 C 167.019531 87.136719 165.929688 86.789062 164.9375 86.34375 C 163.296875 85.597656 162.800781 84.605469 163.445312 82.863281 C 163.992188 81.324219 164.191406 79.832031 164.636719 78.292969 C 165.53125 75.113281 169.054688 76.355469 171.386719 77.5 C 171.535156 76.902344 171.832031 76.257812 172.132812 75.710938 C 171.785156 75.363281 171.4375 74.914062 171.335938 74.617188 C 171.1875 73.871094 171.980469 73.175781 172.378906 72.53125 C 173.125 71.289062 173.867188 69.847656 174.414062 68.503906 C 174.660156 65.574219 175.109375 62.59375 176.300781 59.910156 C 176.398438 59.660156 176.546875 59.414062 176.648438 59.164062 C 131.589844 57.125 69.113281 55.089844 59.734375 56.925781 Z M 243.785156 74.367188 C 245.027344 75.261719 246.019531 76.257812 246.863281 77.546875 C 247.308594 77.050781 247.707031 76.605469 248.203125 76.15625 C 248.003906 75.3125 248.003906 74.46875 248.402344 73.574219 C 248.597656 73.074219 249.144531 72.628906 249.742188 72.332031 C 248.300781 70.941406 247.011719 69.398438 246.019531 67.609375 C 244.628906 64.976562 245.820312 63.1875 246.761719 60.753906 L 243.6875 60.605469 C 243.933594 62.34375 243.339844 64.28125 243.140625 65.871094 C 242.941406 67.363281 242.695312 68.703125 242.246094 70.046875 C 243.785156 71.1875 244.878906 72.777344 243.785156 74.367188 Z M 205.179688 63.984375 C 206.46875 64.828125 207.5625 65.871094 208.652344 67.015625 C 209.148438 67.5625 210.140625 68.304688 210.09375 69.152344 C 210.09375 69.796875 209.445312 70.394531 208.949219 70.941406 C 209.84375 72.628906 210.835938 74.167969 211.878906 75.757812 C 213.019531 77.398438 214.113281 79.039062 215.003906 80.875 C 215.847656 82.617188 216.542969 84.355469 217.734375 85.894531 C 219.074219 87.632812 219.621094 88.628906 219.472656 90.964844 C 219.371094 92.15625 219.421875 93.546875 218.875 94.539062 C 219.867188 94.589844 220.910156 94.691406 221.902344 94.539062 C 223.242188 94.34375 224.582031 94.292969 226.019531 94.292969 C 226.019531 93.648438 226.269531 92.902344 226.566406 92.554688 C 227.164062 91.859375 228.054688 92.054688 228.898438 91.90625 C 230.339844 91.609375 231.777344 91.359375 233.265625 91.261719 C 233.613281 90.515625 234.011719 89.820312 234.457031 89.175781 C 233.464844 85.996094 231.828125 82.714844 231.777344 79.4375 C 229.992188 78.742188 229.644531 76.554688 230.4375 74.714844 C 229.691406 74.417969 228.949219 74.019531 228.949219 73.074219 C 228.949219 72.378906 229.496094 71.4375 229.941406 70.742188 C 228.601562 69.597656 227.660156 68.007812 226.714844 66.515625 C 226.171875 65.671875 225.722656 64.828125 225.425781 63.984375 C 224.832031 63.984375 224.183594 64.082031 223.789062 63.238281 C 223.492188 62.640625 223.589844 61.699219 223.640625 60.851562 C 222.347656 60.804688 215.054688 60.457031 204.1875 60.007812 C 204.585938 61.300781 204.929688 62.691406 205.179688 63.984375 Z M 205.179688 63.984375 " fill-opacity="1" fill-rule="nonzero"/></g></svg>