<svg xmlns="http://www.w3.org/2000/svg" xmlns:xlink="http://www.w3.org/1999/xlink" width="500" zoomAndPan="magnify" viewBox="0 0 375 374.999991" height="500" preserveAspectRatio="xMidYMid meet" version="1.0"><defs><clipPath id="72c8d6d483"><path d="M 31 190 L 332 190 L 332 357 L 31 357 Z M 31 190 " clip-rule="nonzero"/></clipPath><clipPath id="4fd75631e4"><path d="M 348.40625 220.140625 L 321.570312 396.609375 L 26.460938 351.730469 L 53.296875 175.261719 Z M 348.40625 220.140625 " clip-rule="nonzero"/></clipPath><clipPath id="8271b381ab"><path d="M 348.40625 220.140625 L 321.570312 396.609375 L 26.460938 351.730469 L 53.296875 175.261719 Z M 348.40625 220.140625 " clip-rule="nonzero"/></clipPath><clipPath id="ab07194956"><path d="M 348.40625 220.140625 L 321.570312 396.609375 L 26.460938 351.730469 L 53.296875 175.261719 Z M 348.40625 220.140625 " clip-rule="nonzero"/></clipPath></defs><g clip-path="url(#72c8d6d483)"><g clip-path="url(#4fd75631e4)"><g clip-path="url(#8271b381ab)"><g clip-path="url(#ab07194956)"><path fill="#000000" d="M 291.523438 262.21875 C 288.726562 261.839844 286.0625 261.746094 283.40625 262.773438 C 282.980469 260.875 281.996094 258.851562 280.585938 257.566406 C 278.945312 256.019531 277.597656 256.082031 276 256.332031 C 274.101562 254.121094 270.515625 253.667969 267.839844 254.824219 C 265.871094 253.09375 262.921875 253.40625 260.871094 254.878906 C 259.230469 254.226562 257.222656 253.34375 255.753906 253.609375 C 254.648438 253.84375 253.714844 254.683594 252.960938 255.550781 C 250.441406 255.078125 248.0625 254.316406 246.71875 256.390625 C 244.191406 256.003906 242.425781 257.34375 241.109375 259.242188 C 238.773438 258.753906 235.824219 259.375 234.265625 261.105469 C 232.132812 263.414062 233.636719 264.671875 234.730469 266.265625 C 232.339844 267.332031 229.859375 268.382812 227.496094 269.542969 C 224.652344 270.941406 221.082031 272.09375 218.59375 274.082031 C 217.984375 274.570312 217.441406 275.515625 216.828125 276.316406 C 215.648438 275.867188 214.292969 275.082031 212.800781 275.210938 C 211.179688 275.324219 209.296875 276.242188 207.691406 276.847656 C 204.378906 278.085938 200.890625 278.714844 197.476562 279.757812 C 196.492188 280.054688 195.089844 280.46875 193.84375 281.039062 C 192.363281 279.917969 190.621094 279.34375 188.480469 279.0625 C 187.078125 278.890625 183.140625 278.070312 181.390625 279.011719 C 180.167969 277.082031 179.792969 274.570312 179.007812 272.394531 C 177.890625 269.457031 176.152344 268.566406 173.714844 268.464844 C 173.085938 266.136719 171.976562 263.464844 171.109375 261.546875 C 170.097656 259.386719 168.195312 258.113281 166.152344 258.339844 C 164.523438 254.382812 164.628906 250.15625 163.007812 246.160156 C 160.476562 239.925781 155.167969 241.976562 150.492188 244.835938 C 148.082031 246.300781 145.820312 247.96875 143.714844 249.789062 C 141.90625 245.851562 140.871094 242.078125 140.050781 237.800781 C 139.191406 233.472656 138.285156 229.449219 137.613281 225.058594 C 137.261719 222.683594 135.214844 212.683594 131.464844 217.382812 C 128.984375 220.488281 129.164062 227.527344 129.789062 231.640625 C 130.355469 235.253906 130.980469 238.476562 131.746094 241.941406 C 128.820312 240.648438 125.128906 239.683594 124.082031 242.742188 C 123.886719 242.578125 123.636719 242.449219 123.433594 242.328125 C 122.035156 241.535156 120.726562 240.757812 119.246094 240.21875 C 117.5625 239.5625 114.328125 237.953125 112.195312 237.894531 C 112.648438 236.089844 109.675781 233.628906 108.558594 232.742188 C 107.839844 232.1875 106.972656 231.429688 106.140625 231.035156 C 105.929688 230.960938 105.675781 230.875 105.421875 230.792969 C 105.878906 229.835938 106.171875 229.074219 104.964844 227.910156 C 103.996094 226.957031 102.804688 226.867188 101.570312 226.769531 C 100.640625 223.5 98.769531 222.011719 95.210938 220.753906 C 92.886719 219.910156 89.246094 219.492188 86.789062 218.046875 C 86.277344 216.136719 86.886719 215.066406 84.363281 214.058594 C 82.597656 213.34375 81.277344 213.5 79.613281 213.605469 C 78.5625 212.285156 75.75 211.410156 73.859375 210.941406 C 73.640625 210.328125 73.464844 209.722656 73.050781 209.210938 C 72.304688 208.25 71.15625 207.585938 70.417969 206.578125 C 69.707031 205.667969 69.042969 204.761719 68.21875 204.011719 C 67.398438 203.261719 66.058594 202.96875 65.234375 202.21875 C 63.714844 199.308594 62.578125 196.230469 60.710938 193.535156 C 58.542969 190.484375 54.722656 188.605469 52.3125 192.4375 C 50.3125 195.617188 50.09375 200.855469 50.703125 204.472656 C 51.421875 208.558594 54.496094 210.054688 57.613281 212.445312 C 60.214844 214.40625 62.199219 216.894531 64.179688 219.429688 C 64.308594 220.34375 64.300781 221.28125 64.609375 222.175781 C 65.425781 224.441406 67.96875 224.160156 70.175781 223.734375 C 70.40625 223.679688 70.679688 223.632812 70.910156 223.578125 C 70.984375 224.574219 71.191406 225.542969 72.042969 226.699219 C 72.855469 227.804688 75.050781 229.210938 76.554688 228.726562 C 77.921875 231.167969 79.886719 233.519531 81.265625 235.605469 C 82.710938 237.832031 85.269531 244.476562 88.800781 242.957031 C 89.023438 243.839844 89.433594 244.660156 90.261719 245.101562 C 90.875 245.460938 92.496094 245.664062 93.515625 245.417969 C 93.578125 245.871094 93.6875 246.335938 93.890625 246.769531 C 94.335938 247.640625 95.101562 248.472656 95.648438 249.269531 C 96.640625 250.671875 98.703125 252.367188 100.582031 252.339844 C 100.722656 253.167969 100.910156 254 101.144531 254.792969 C 101.820312 256.816406 102.53125 258.890625 103.40625 260.765625 C 104.8125 263.835938 107.515625 267.195312 110.46875 269.476562 C 109.3125 270.640625 108.109375 271.796875 107.113281 273.074219 C 103.050781 278.351562 109.394531 279.761719 113.058594 282.375 C 116.804688 285.042969 120.324219 287.40625 124.476562 289.15625 C 123.839844 290.398438 123.5625 291.652344 125 292.761719 C 126.589844 294.03125 129.503906 294.25 131.386719 295.074219 C 133.808594 296.15625 139.097656 299.507812 140.421875 302.835938 C 139.152344 302.6875 137.875 302.582031 136.601562 302.433594 C 133.703125 302.125 126.308594 299.707031 124.03125 301.769531 C 122.578125 303.113281 122.816406 306.230469 122.546875 308.019531 C 122.28125 309.765625 121.976562 311.460938 121.84375 313.226562 C 120.28125 313.527344 118.675781 314.085938 117.355469 314.554688 C 112.527344 316.097656 109.292969 318.867188 105.449219 321.855469 C 103.570312 323.355469 101.574219 324.75 99.621094 326.148438 C 98.472656 326.957031 96.894531 327.652344 95.671875 328.628906 C 93.925781 328.097656 92.199219 327.117188 90.429688 326.714844 C 88.65625 326.355469 87.65625 326.785156 86.546875 327.332031 C 84.25 325.417969 81.730469 325.257812 78.882812 326.078125 C 77.023438 324.8125 73.570312 323.75 71.660156 324.574219 C 70.980469 323.757812 69.621094 323.015625 68.742188 322.925781 C 67.566406 322.746094 66.816406 323.257812 66.007812 323.894531 C 64.148438 323.210938 62.484375 323.003906 60.695312 323.042969 C 60.042969 321.15625 58.140625 321.046875 56.066406 320.597656 C 54.039062 320.15625 53.011719 318.703125 51.152344 318.019531 C 49.546875 317.417969 46.226562 316.644531 44.554688 316.792969 C 40.851562 317.078125 40.480469 322.46875 40.96875 325.714844 C 38.273438 328.476562 35.972656 331.5625 33.996094 334.878906 C 31.816406 338.65625 30.503906 342.878906 31.3125 347.246094 C 32.324219 352.625 35.511719 351.902344 38.914062 348.890625 C 41.996094 346.234375 44.324219 343.238281 47.164062 340.410156 C 49.746094 337.8125 53.554688 337.410156 56.398438 335.160156 C 58.402344 336.359375 61.332031 337.921875 63.050781 338.046875 C 63.6875 340.019531 67.238281 340.160156 69.363281 340.257812 C 70.253906 342.046875 72.660156 343.527344 74.488281 343.539062 C 75.332031 346.210938 78.773438 347.046875 81.894531 347.65625 C 83.972656 348.0625 85.464844 347.933594 87.515625 347.933594 C 88.765625 347.941406 90.066406 348.1875 91.324219 348.421875 C 92.8125 351.550781 97.808594 352.445312 100.84375 353.890625 C 102.890625 354.824219 104.933594 356.921875 107.289062 356.699219 C 109.101562 356.527344 110.386719 355.117188 110.320312 353.5 C 111.996094 353.621094 114.160156 353.1875 115.667969 352.660156 C 116.984375 353.976562 118.71875 355.179688 120.183594 355.535156 C 122.375 356.089844 123.964844 354.726562 125.726562 353.699219 C 127.839844 352.410156 130.121094 351.507812 132.160156 350.121094 C 135.257812 347.957031 138.300781 345.832031 141.640625 344.105469 C 141.140625 345.949219 140.847656 347.871094 140.902344 349.84375 C 141.007812 352.984375 142.285156 355.726562 145.429688 352.941406 C 147.902344 350.773438 149.246094 347.496094 151.285156 344.945312 C 155.035156 340.246094 160.050781 338.0625 165.035156 334.933594 C 167.203125 336.515625 170.304688 335.199219 171.210938 332.167969 C 173.378906 332.585938 176.40625 332.332031 177.492188 332.230469 C 179.355469 332.023438 181.8125 331.101562 184.050781 330.769531 C 184.933594 332.289062 186.519531 333.601562 188.074219 333.347656 C 189.761719 333.113281 191.207031 331.234375 191.785156 329.492188 C 193.207031 329.527344 194.792969 329.367188 196.164062 329.175781 C 196.238281 331.910156 201.019531 332.726562 203.105469 332.507812 C 205.324219 332.308594 208.320312 331.960938 210.761719 331.171875 C 212.101562 332.625 215.449219 332.332031 217.105469 332.003906 C 218.023438 331.828125 220.726562 331.078125 222.484375 330.363281 C 224.121094 331.058594 227.074219 330.703125 228.121094 330.28125 C 229.773438 329.6875 231.523438 328.433594 232.757812 327.058594 C 235.53125 329.085938 240.640625 329.820312 243.03125 330.226562 C 245.328125 330.667969 247.761719 331.394531 250.113281 331.484375 C 251.664062 331.542969 253.078125 331.355469 254.59375 331.363281 C 254.960938 332.175781 255.496094 332.75 256.839844 333.3125 C 258.855469 334.152344 260.929688 334.871094 262.882812 335.835938 C 265.867188 337.320312 269.628906 339.007812 272.789062 337.300781 C 276.167969 340 281.574219 341.136719 285.578125 340.046875 C 288.089844 339.359375 289.832031 337.300781 291.570312 335.554688 C 293.359375 333.773438 295.429688 332.167969 297.132812 330.371094 C 298.625 328.769531 299.792969 326.667969 299.15625 324.695312 C 301.667969 323.425781 304.277344 319.179688 305.578125 317.367188 C 306.9375 315.472656 308.472656 313.296875 309.480469 311.082031 C 313.03125 311.488281 317.832031 305.742188 316.023438 302.96875 C 319.234375 302.695312 322.003906 301.199219 323.667969 298.769531 C 324.367188 299.457031 325.273438 299.953125 326.179688 300.136719 C 325.277344 307.546875 336.804688 295.722656 329.625 295.96875 C 329.203125 294.925781 328.328125 293.941406 327.429688 293.089844 C 328.121094 292.078125 328.402344 290.515625 327.839844 289.535156 C 327.378906 288.75 326.515625 288.261719 325.574219 287.984375 C 326.339844 286.761719 324.425781 285.578125 322.820312 284.976562 C 323.992188 283.144531 321.789062 281.203125 319.621094 280.785156 C 320.128906 278.316406 320.394531 275.988281 318.394531 274.480469 C 318.265625 272.09375 316.878906 270.945312 314.742188 270.304688 C 314.808594 267.816406 310.496094 266.847656 308.066406 266.386719 C 305.910156 265.03125 303.242188 263.777344 300.800781 263.988281 C 289.410156 250.289062 246.5625 209.296875 246.5625 209.296875 C 240.800781 203.773438 232.128906 203.574219 232.128906 203.574219 C 241.421875 210.253906 284.316406 254.738281 291.523438 262.21875 Z M 300.742188 280.234375 C 301.894531 280.855469 303.4375 281.269531 304.796875 281.433594 C 306.371094 283.992188 310.363281 285.628906 312.976562 284.863281 C 310.714844 285.949219 308.253906 286.871094 307.519531 289.347656 C 307.070312 290.84375 306.746094 292.671875 306.601562 294.210938 C 306.519531 295.046875 306.660156 295.871094 306.804688 296.699219 C 305.132812 297.113281 303.300781 298.308594 302.234375 299.171875 C 300.921875 300.179688 300.585938 301.199219 300.851562 302.402344 C 299.882812 302.613281 298.867188 302.816406 297.902344 303.292969 C 297.132812 303.667969 296.359375 304.355469 295.53125 304.808594 C 294.914062 303.285156 293.917969 301.929688 292.71875 301.300781 C 294.550781 298.628906 296.546875 292.859375 294.695312 292.710938 C 293.726562 292.609375 291.5 295.21875 290.734375 295.863281 C 289.96875 296.503906 289.214844 297.058594 288.386719 297.515625 C 286.390625 295.960938 284.371094 295.160156 281.507812 294.636719 C 278.902344 294.152344 276.785156 293.113281 275.027344 294.410156 C 274.328125 292.832031 272.632812 292.261719 271 292.414062 C 270.496094 291.625 270.296875 290.296875 269.503906 289.640625 C 268.828125 289.09375 268.183594 288.949219 267.457031 289.015625 C 267.273438 287.871094 266.78125 286.414062 265.875 285.339844 C 269.445312 285.925781 273.242188 286.191406 276.617188 285.722656 C 278.078125 285.496094 283.109375 284.386719 286.007812 283.21875 C 290.582031 286.011719 299.472656 285.355469 300.742188 280.234375 Z M 300.742188 280.234375 " fill-opacity="1" fill-rule="nonzero"/></g></g></g></g></svg>